<?xml version="1.0" encoding="UTF-8"?>
<!DOCTYPE svg PUBLIC "-//W3C//DTD SVG 1.1//EN" "http://www.w3.org/Graphics/SVG/1.1/DTD/svg11.dtd">
<svg xmlns="http://www.w3.org/2000/svg" version="1.1" width="1000px" height="1000px" style="shape-rendering:geometricPrecision; text-rendering:geometricPrecision; image-rendering:optimizeQuality; fill-rule:evenodd; clip-rule:evenodd" xmlns:xlink="http://www.w3.org/1999/xlink">
<g><path style="opacity:0.991" fill="#fefffe" d="M 300.5,37.5 C 444.834,37.3333 589.167,37.5 733.5,38C 787.772,46.9454 823.605,77.4454 841,129.5C 842.717,135.752 844.05,142.086 845,148.5C 845.667,382.833 845.667,617.167 845,851.5C 835.595,905.231 805.095,940.731 753.5,958C 746.935,959.846 740.269,961.18 733.5,962C 589.167,962.667 444.833,962.667 300.5,962C 246.228,953.055 210.395,922.555 193,870.5C 191.283,864.248 189.95,857.914 189,851.5C 188.333,617.167 188.333,382.833 189,148.5C 200.804,85.8628 237.97,48.8628 300.5,37.5 Z M 309.5,127.5 C 447.834,127.333 586.167,127.5 724.5,128C 740.667,132.167 750.833,142.333 755,158.5C 755.667,386.167 755.667,613.833 755,841.5C 750.833,857.667 740.667,867.833 724.5,872C 586.167,872.667 447.833,872.667 309.5,872C 293.333,867.833 283.167,857.667 279,841.5C 278.333,613.833 278.333,386.167 279,158.5C 283.349,142.319 293.516,131.985 309.5,127.5 Z"/></g>
<g><path style="opacity:1" fill="#fefffe" d="M 455.5,197.5 C 496.5,197.5 537.5,197.5 578.5,197.5C 578.5,242.167 578.5,286.833 578.5,331.5C 621.5,331.5 664.5,331.5 707.5,331.5C 707.5,371.167 707.5,410.833 707.5,450.5C 580.833,450.5 454.167,450.5 327.5,450.5C 327.5,410.833 327.5,371.167 327.5,331.5C 370.167,331.5 412.833,331.5 455.5,331.5C 455.5,286.833 455.5,242.167 455.5,197.5 Z"/></g>
<g><path style="opacity:1" fill="#fefffe" d="M 327.5,549.5 C 454.167,549.5 580.833,549.5 707.5,549.5C 707.5,589.167 707.5,628.833 707.5,668.5C 664.5,668.5 621.5,668.5 578.5,668.5C 578.5,714.5 578.5,760.5 578.5,806.5C 537.5,806.5 496.5,806.5 455.5,806.5C 455.5,760.5 455.5,714.5 455.5,668.5C 412.833,668.5 370.167,668.5 327.5,668.5C 327.5,628.833 327.5,589.167 327.5,549.5 Z"/></g>
</svg>
