<?xml version="1.0" encoding="UTF-8"?>
<!DOCTYPE svg PUBLIC "-//W3C//DTD SVG 1.1//EN" "http://www.w3.org/Graphics/SVG/1.1/DTD/svg11.dtd">
<svg xmlns="http://www.w3.org/2000/svg" version="1.1" width="1000px" height="1000px" style="shape-rendering:geometricPrecision; text-rendering:geometricPrecision; image-rendering:optimizeQuality; fill-rule:evenodd; clip-rule:evenodd" xmlns:xlink="http://www.w3.org/1999/xlink">
<g><path style="opacity:0.991" fill="#fefffe" d="M 143.5,12.5 C 380.5,12.3333 617.5,12.5 854.5,13C 917.212,24.0456 954.379,60.8789 966,123.5C 966.667,375.833 966.667,628.167 966,880.5C 954.379,943.121 917.212,979.954 854.5,991C 617.5,991.667 380.5,991.667 143.5,991C 89.228,982.055 53.3947,951.555 36,899.5C 34.1537,892.935 32.8204,886.269 32,879.5C 31.3333,627.833 31.3333,376.167 32,124.5C 43.3459,61.321 80.5125,23.9877 143.5,12.5 Z M 151.5,102.5 C 383.167,102.333 614.834,102.5 846.5,103C 862,107.167 871.833,117 876,132.5C 876.667,378.833 876.667,625.167 876,871.5C 871.833,887 862,896.833 846.5,901C 614.833,901.667 383.167,901.667 151.5,901C 135.892,896.392 126.059,886.226 122,870.5C 121.333,624.833 121.333,379.167 122,133.5C 126.244,117.758 136.077,107.425 151.5,102.5 Z"/></g>
<g><path style="opacity:1" fill="#fefffe" d="M 408.5,180.5 C 469.5,180.5 530.5,180.5 591.5,180.5C 591.5,228.167 591.5,275.833 591.5,323.5C 655.167,323.5 718.833,323.5 782.5,323.5C 782.5,365.5 782.5,407.5 782.5,449.5C 593.833,449.5 405.167,449.5 216.5,449.5C 216.5,407.5 216.5,365.5 216.5,323.5C 280.5,323.5 344.5,323.5 408.5,323.5C 408.5,275.833 408.5,228.167 408.5,180.5 Z"/></g>
<g><path style="opacity:1" fill="#fefffe" d="M 216.5,555.5 C 405.167,555.5 593.833,555.5 782.5,555.5C 782.5,597.5 782.5,639.5 782.5,681.5C 718.833,681.5 655.167,681.5 591.5,681.5C 591.5,730.833 591.5,780.167 591.5,829.5C 530.5,829.5 469.5,829.5 408.5,829.5C 408.5,780.167 408.5,730.833 408.5,681.5C 344.5,681.5 280.5,681.5 216.5,681.5C 216.5,639.5 216.5,597.5 216.5,555.5 Z"/></g>
</svg>
